<svg id="icons" xmlns="http://www.w3.org/2000/svg" viewBox="0 0 128 128"><defs><style>.cls-1{fill:#ffda6e;}.cls-2{fill:#f9b55a;}.cls-3{fill:#c16f25;}.cls-4{fill:#cbccd3;}.cls-5{fill:#464649;}.cls-6{fill:#5282ef;}.cls-7{fill:none;stroke:#000;stroke-linecap:round;stroke-linejoin:round;stroke-width:2px;}.cls-8{opacity:0.16;}</style></defs><title>paint-brush</title><path class="cls-1" d="M31.541,81.5a121.7,121.7,0,0,0,15.424-13.14c3.063-3.062,3.36-4.987,1.592-10.292-1.839-5.519-3.427-10.283,1.208-14.917l2.092-2.1,11.22-11.21a96.647,96.647,0,0,0,9.542-11.392A80.372,80.372,0,0,0,64,18C28.12,18,18,38.595,18,64c0,9.078,1.3,17.534,4.6,24.663A110.716,110.716,0,0,1,31.541,81.5Z"/><path class="cls-1" d="M107.054,72.89c-5.137-1.087-8.214-4.814-8.039-8.8-.29.28-.582.56-.86.837l-11.2,11.209-2.12,2.11a9.231,9.231,0,0,1-6.853,3.03c-2.153,0-4.492-.644-8.056-1.831a16.872,16.872,0,0,0-5.088-1.076c-1.317,0-2.86.323-5.206,2.668A121.762,121.762,0,0,0,46.5,96.459a110.8,110.8,0,0,1-7.152,8.932C45.732,108.342,53.829,110,64,110c31.648,0,43.248-16.026,45.546-37.24A4.825,4.825,0,0,1,107.054,72.89Z"/><path class="cls-2" d="M92.88,70.21l-5.92,5.92-2.12,2.11a10.068,10.068,0,0,1-3.81,2.53c-.4,3.95,3.24,6.42,11.39,4.65C102.97,83.13,99.1,71.86,92.88,70.21Z"/><path class="cls-2" d="M60.13,108.89c.18.36.37.7.57,1.04h.01c1.07.05,2.17.07,3.29.07a71.212,71.212,0,0,0,15.07-1.47,28.23,28.23,0,0,0,1.2-2.63C86.32,90.95,52.48,93.73,60.13,108.89Z"/><path class="cls-2" d="M26.71,63.284c4.391,6.824,10.246,7.582,11.71-1.516S20.567,53.737,26.71,63.284Z"/><path class="cls-2" d="M35.42,24.71c9.78,11.53,17.57,5.51,18.55-4.43a4.7,4.7,0,0,0-.11-1.66A45.958,45.958,0,0,0,35.42,24.71Z"/><g id="_Group_" data-name="&lt;Group&gt;"><path class="cls-3" d="M55.4,44.58,83.42,72.6l-2.11,2.1c-2.1,2.1-3.5,2.1-9.8,0S61,72.6,56.1,77.5C43.49,90.11,42.09,95.71,32.99,104.82c-7.7,7.7-16.11,9.1-17.51,7.7s0-9.81,7.7-17.51c9.11-9.1,14.71-10.5,27.32-23.11,4.9-4.9,4.9-9.11,2.8-15.41s-2.1-7.7,0-9.8ZM29.49,102.71a2.97,2.97,0,1,0-4.2,0A2.969,2.969,0,0,0,29.49,102.71Z"/><polygon class="cls-4" points="94.62 61.39 83.42 72.6 55.4 44.58 66.61 33.38 94.62 61.39"/><path class="cls-5" d="M100.56,56.01c-1.99,1.65-4.02,3.46-5.94,5.38L66.61,33.38A111.792,111.792,0,0,0,80.42,15.9a1.964,1.964,0,0,1,2.52-.7,54.046,54.046,0,0,1,6.09,3.45,1,1,0,0,1,.25,1.44L78.51,34.08l14.1-11.93a.994.994,0,0,1,1.25-.03,72.157,72.157,0,0,1,5.65,4.96c-3.95,1.02-6.54,3.2-5.59,7-4.2,1.4-7.7,6.3-5.6,9.8-2.1,4.91,4.2,8.41,7.7,4.91C94.43,52.51,97.26,55.01,100.56,56.01Z"/><path class="cls-6" d="M112.8,45.06a1.964,1.964,0,0,1-.7,2.52,120.777,120.777,0,0,0-11.54,8.43c-3.3-1-6.13-3.5-4.54-7.22-3.5,3.5-9.8,0-7.7-4.91-2.1-3.5,1.4-8.4,5.6-9.8-.95-3.8,1.64-5.98,5.59-7,.24.23.47.46.71.7,1.51,1.5,2.87,3,4.09,4.44a1,1,0,0,1-.06,1.34l-9.63,9.62,11.79-6.87a.992.992,0,0,1,1.31.28A57.624,57.624,0,0,1,112.8,45.06Z"/><path class="cls-6" d="M107.316,59.427c-4.922,2.4-3.891,7.574,0,8.521S113.153,56.586,107.316,59.427Z"/><path class="cls-7" d="M55.4,44.58l-2.1,2.11c-2.1,2.1-2.1,3.5,0,9.8S55.4,67,50.5,71.9C37.89,84.51,32.29,85.91,23.18,95.01c-7.7,7.7-9.1,16.11-7.7,17.51s9.81,0,17.51-7.7c9.1-9.11,10.5-14.71,23.11-27.32,4.9-4.9,9.11-4.9,15.41-2.8s7.7,2.1,9.8,0l2.11-2.1"/><circle class="cls-7" cx="27.39" cy="100.61" r="2.97" transform="translate(-63.12 48.836) rotate(-45)"/><polygon class="cls-7" points="94.62 61.39 66.61 33.38 55.4 44.58 83.42 72.6 94.62 61.39"/><g class="cls-8"><line class="cls-7" x1="63.805" y1="36.181" x2="91.819" y2="64.195"/><line class="cls-7" x1="58.202" y1="41.783" x2="86.217" y2="69.798"/></g><path class="cls-7" d="M66.61,33.38A111.792,111.792,0,0,0,80.42,15.9a1.964,1.964,0,0,1,2.52-.7,54.046,54.046,0,0,1,6.09,3.45,1,1,0,0,1,.25,1.44L78.51,34.08l14.1-11.93a.994.994,0,0,1,1.25-.03,72.157,72.157,0,0,1,5.65,4.96c.24.23.47.46.71.7,1.51,1.5,2.87,3,4.09,4.44a1,1,0,0,1-.06,1.34l-9.63,9.62,11.79-6.87a.992.992,0,0,1,1.31.28,57.624,57.624,0,0,1,5.08,8.47,1.964,1.964,0,0,1-.7,2.52,120.777,120.777,0,0,0-11.54,8.43c-1.99,1.65-4.02,3.46-5.94,5.38"/><path class="cls-7" d="M107.316,59.427c-4.922,2.4-3.891,7.574,0,8.521S113.153,56.586,107.316,59.427Z"/><path class="cls-7" d="M99.51,27.08c-3.95,1.02-6.54,3.2-5.59,7-4.2,1.4-7.7,6.3-5.6,9.8-2.1,4.91,4.2,8.41,7.7,4.91-1.59,3.72,1.24,6.22,4.54,7.22"/></g></svg>